# Blender 4.1.1
# www.blender.org
mtllib Diamond.mtl
o Cylinder.001
v 0.737149 4.653165 3.233094
v 0.759145 4.553576 3.201280
v 0.227415 3.565567 3.970343
v 0.605391 5.093266 3.991383
v 0.393388 3.565567 4.227489
v 0.645782 5.093266 4.509635
v 0.328920 3.565567 4.526679
v 0.307883 5.093266 4.904655
v 0.071774 3.565567 4.692653
v -0.210369 5.093266 4.945045
v -0.227416 3.565567 4.628184
v -0.605389 5.093266 4.607146
v -0.393389 3.565567 4.371038
v -0.645779 5.093266 4.088894
v -0.328921 3.565567 4.071848
v -0.307880 5.093266 3.693874
v -0.071775 3.565567 3.905875
v 0.210372 5.093266 3.653484
v 0.668169 4.885576 3.332862
v 1.155816 4.885576 4.088382
v 1.275139 4.653165 4.066611
v 1.313187 4.553576 4.059669
v 0.966401 4.885576 4.967433
v 1.066170 4.653165 5.036413
v 1.097983 4.553576 5.058409
v 0.210881 4.885576 5.455081
v 0.232652 4.653165 5.574403
v 0.239594 4.553576 5.612452
v -0.668171 4.885576 5.265666
v -0.737150 4.653165 5.365434
v -0.759146 4.553576 5.397247
v -1.155817 4.885576 4.510146
v -1.275140 4.653165 4.531917
v -1.313189 4.553576 4.538858
v -0.966403 4.885576 3.631094
v -1.066171 4.653165 3.562114
v -1.097984 4.553576 3.540119
v -0.210883 4.885576 3.143447
v -0.232653 4.653165 3.024124
v -0.239595 4.553576 2.986076
v 0.298030 4.513089 2.916145
v 0.298030 4.630909 2.916145
v -0.767274 4.513089 3.110512
v -0.767274 4.630909 3.110512
v -1.383119 4.513089 4.001235
v -1.383119 4.630909 4.001235
v -1.188752 4.513089 5.066539
v -1.188752 4.630909 5.066539
v -0.298029 4.513089 5.682384
v -0.298029 4.630909 5.682384
v 0.767275 4.513089 5.488016
v 0.767275 4.630909 5.488016
v 1.383120 4.513089 4.597294
v 1.383120 4.630909 4.597294
v 1.188752 4.513089 3.531990
v 1.188752 4.630909 3.531990
v 0.000001 5.093266 4.299264
v 0.000000 3.176254 4.299264
vn -0.5259 -0.0000 0.8505
vn -0.5893 -0.6873 -0.4247
vn 0.3798 0.8920 -0.2451
vn -0.5033 0.4627 0.7298
vn -0.1602 0.4627 -0.8719
vn 0.4419 0.8920 0.0952
vn -0.8719 0.4627 0.1602
vn -0.2295 -0.0000 -0.9733
vn 0.2451 0.8920 0.3798
vn -0.9733 -0.0000 0.2295
vn -0.1164 -0.6873 -0.7170
vn -0.0952 0.8920 0.4419
vn -0.7170 -0.6873 0.1164
vn 0.5033 0.4627 -0.7298
vn -0.3798 0.8920 0.2451
vn -0.7298 0.4627 -0.5033
vn 0.5259 -0.0000 -0.8505
vn -0.4419 0.8920 -0.0952
vn 0.6095 -0.6884 -0.3934
vn 0.4247 -0.6873 -0.5893
vn -0.2451 0.8920 -0.3798
vn -0.4247 -0.6873 0.5893
vn -0.8505 -0.0000 -0.5259
vn 0.0952 0.8920 -0.4419
vn 0.3572 0.9336 -0.0278
vn 0.1164 -0.6873 0.7170
vn 0.2295 -0.0000 0.9733
vn 0.1602 0.4627 0.8719
vn 0.5893 -0.6873 0.4247
vn 0.8505 -0.0000 0.5259
vn 0.7298 0.4627 0.5033
vn 0.7170 -0.6873 -0.1164
vn 0.9733 -0.0000 -0.2295
vn 0.8719 0.4627 -0.1602
vn 0.6100 -0.0000 -0.7924
vn 0.9916 -0.0000 -0.1290
vn 0.7924 -0.0000 0.6100
vn -0.9916 -0.0000 0.1290
vn -0.1290 -0.0000 -0.9916
vn -0.6100 -0.0000 0.7924
vn -0.7924 -0.0000 -0.6100
vn 0.1290 -0.0000 0.9916
vn -0.6565 -0.7409 -0.1415
vn -0.7119 -0.6873 0.1444
vn 0.1581 0.4627 0.8723
vn -0.1288 0.7911 0.5979
vn -0.7286 0.4627 -0.5050
vn -0.3317 0.7911 -0.5139
vn -0.5050 0.4627 0.7286
vn -0.5139 0.7911 0.3317
vn -0.3642 -0.7409 -0.5642
vn -0.6055 -0.6873 -0.4013
vn -0.5642 -0.7409 0.3642
vn -0.4013 -0.6873 0.6055
vn -0.1581 0.4627 -0.8723
vn 0.1288 0.7911 -0.5979
vn -0.8723 0.4627 0.1581
vn -0.5979 0.7911 -0.1288
vn 0.1415 -0.7409 -0.6565
vn -0.1444 -0.6873 -0.7119
vn -0.1415 -0.7409 0.6565
vn 0.1444 -0.6873 0.7119
vn 0.3642 -0.7409 0.5642
vn 0.6055 -0.6873 0.4013
vn 0.7286 0.4627 0.5050
vn 0.3317 0.7911 0.5139
vn 0.6565 -0.7409 0.1415
vn 0.7119 -0.6873 -0.1444
vn 0.8723 0.4627 -0.1581
vn 0.5979 0.7911 0.1288
vn 0.5642 -0.7409 -0.3642
vn 0.4013 -0.6873 -0.6055
vn 0.5050 0.4627 -0.7286
vn 0.5139 0.7911 -0.3317
vn -0.0000 1.0000 -0.0000
vn 0.7091 -0.6884 0.1528
vn 0.3934 -0.6884 0.6095
vn -0.1528 -0.6884 0.7091
vn -0.6095 -0.6884 0.3934
vn -0.7091 -0.6884 -0.1528
vn -0.3934 -0.6884 -0.6095
vn 0.1528 -0.6884 -0.7091
vn 0.2723 0.9336 0.2329
vn 0.0278 0.9336 0.3572
vn -0.2329 0.9336 0.2723
vn -0.3572 0.9336 0.0278
vn -0.2722 0.9336 -0.2329
vn -0.0278 0.9336 -0.3572
vn 0.2329 0.9336 -0.2723
vn -0.5334 0.3620 0.7645
vn -0.1634 0.3620 -0.9177
vn -0.9177 0.3620 0.1634
vn 0.5334 0.3620 -0.7645
vn -0.7645 0.3620 -0.5334
vn 0.1634 0.3620 0.9177
vn 0.7645 0.3620 0.5334
vn 0.9177 0.3620 -0.1634
vn 0.5268 0.3620 -0.7690
vn 0.9163 0.3620 -0.1713
vn 0.7690 0.3620 0.5268
vn -0.9163 0.3620 0.1713
vn -0.1713 0.3620 -0.9163
vn -0.5268 0.3620 0.7690
vn -0.7690 0.3620 -0.5268
vn 0.1713 0.3620 0.9163
vt 0.385883 0.309765
vt 0.399091 0.207718
vt 0.398276 0.314499
vt 0.097801 0.950183
vt 0.040976 0.885918
vt 0.273380 0.858544
vt 0.567647 0.689175
vt 0.486157 0.740487
vt 0.495715 0.572187
vt 0.337223 0.198254
vt 0.382101 0.204654
vt 0.688817 0.905393
vt 0.639635 0.922426
vt 0.610420 0.847934
vt 0.588273 0.789914
vt 0.544981 0.898462
vt 0.688817 0.575420
vt 0.639635 0.558387
vt 0.659488 0.480813
vt 0.619163 0.927857
vt 0.588273 0.847934
vt 0.171405 0.325860
vt 0.278632 0.366907
vt 0.138432 0.453441
vt 0.619163 0.552956
vt 0.637341 0.480813
vt 0.000000 0.822143
vt 0.014631 0.723957
vt 0.265488 0.810025
vt 0.226951 0.240086
vt 0.608445 0.012695
vt 0.698135 0.000000
vt 0.749780 0.256374
vt 0.445286 0.562576
vt 0.467203 0.480813
vt 0.218365 0.141595
vt 0.279883 0.046276
vt 0.666766 0.740406
vt 0.615307 0.740406
vt 0.610420 0.632879
vt 0.424890 0.560163
vt 0.447247 0.483826
vt 0.150675 0.088081
vt 0.140200 0.000000
vt 0.297510 0.759758
vt 0.350688 0.737187
vt 0.369696 0.843704
vt 0.046206 0.632982
vt 0.121526 0.556157
vt 0.742803 0.804525
vt 0.445298 0.152169
vt 0.520618 0.075343
vt 0.696602 0.278945
vt 0.594109 0.740406
vt 0.588273 0.632879
vt 0.588273 0.605057
vt 0.568056 0.492149
vt 0.399091 0.341330
vt 0.413723 0.243143
vt 0.664579 0.329212
vt 0.256324 0.476079
vt 0.332523 0.399334
vt 0.268718 0.480813
vt 0.317461 0.390718
vt 0.496893 0.469370
vt 0.440067 0.405105
vt 0.672471 0.377731
vt 0.445936 0.855307
vt 0.480864 0.930862
vt 0.425980 0.858320
vt 0.499638 0.922534
vt 0.209353 0.493508
vt 0.299043 0.480813
vt 0.413827 0.642663
vt 0.414031 0.751378
vt 0.393871 0.645676
vt 0.434741 0.748251
vt 0.544720 0.994181
vt 0.524764 0.997194
vt 0.659488 1.000000
vt 0.637341 1.000000
vt 0.386698 0.100799
vt 0.399091 0.105533
vt 0.792963 0.274722
vt 0.792963 0.004610
vt 0.393871 0.755535
vt 0.393871 0.485422
vt 0.084264 0.348671
vt 0.016574 0.295157
vt 0.117470 0.218376
vt 0.007988 0.196666
vt 0.063534 0.110892
vt 0.768787 0.362892
vt -0.000000 0.086534
s 0
usemtl Material
f 50/1/1 31/2/1 49/3/1
f 45/4/2 37/5/2 15/6/2
f 4/7/3 20/8/3 19/9/3
f 29/10/4 30/11/4 50/1/4
f 38/12/5 39/13/5 44/14/5
f 6/15/6 23/16/6 20/8/6
f 32/17/7 33/18/7 48/19/7
f 44/14/8 40/20/8 43/21/8
f 8/22/9 26/23/9 23/24/9
f 48/19/10 34/25/10 47/26/10
f 43/27/11 40/28/11 17/29/11
f 10/30/12 29/10/12 26/23/12
f 47/31/13 34/32/13 13/33/13
f 19/9/14 1/34/14 42/35/14
f 12/36/15 32/37/15 29/10/15
f 35/38/16 36/39/16 46/40/16
f 42/35/17 2/41/17 41/42/17
f 14/43/18 35/44/18 32/37/18
f 3/45/19 5/46/19 58/47/19
f 41/48/20 2/49/20 3/45/20
f 16/50/21 38/12/21 35/38/21
f 49/51/22 31/52/22 11/53/22
f 46/40/23 37/54/23 45/55/23
f 18/56/24 19/9/24 38/57/24
f 4/7/25 6/15/25 20/8/25
f 51/58/26 28/59/26 9/60/26
f 52/61/27 28/62/27 51/63/27
f 26/23/28 27/64/28 52/61/28
f 53/65/29 25/66/29 7/67/29
f 54/68/30 25/69/30 53/70/30
f 23/16/31 24/71/31 54/68/31
f 55/72/32 22/73/32 5/46/32
f 56/74/33 22/75/33 55/76/33
f 20/8/34 21/77/34 56/74/34
f 2/41/35 56/74/35 55/76/35
f 22/75/36 54/68/36 53/70/36
f 25/69/37 52/78/37 51/79/37
f 34/25/38 46/40/38 45/55/38
f 40/20/39 42/80/39 41/81/39
f 31/2/40 48/82/40 47/83/40
f 37/54/41 44/14/41 43/21/41
f 28/62/42 50/1/42 49/3/42
f 15/84/43 13/33/43 45/85/43
f 13/33/44 34/32/44 45/85/44
f 50/1/45 27/64/45 26/23/45
f 26/23/46 29/10/46 50/1/46
f 44/14/47 36/39/47 35/38/47
f 35/38/48 38/12/48 44/14/48
f 48/82/49 30/11/49 29/10/49
f 29/10/50 32/37/50 48/82/50
f 17/29/51 15/6/51 43/27/51
f 15/6/52 37/5/52 43/27/52
f 13/33/53 11/53/53 47/31/53
f 11/53/54 31/52/54 47/31/54
f 42/80/55 39/13/55 38/12/55
f 38/57/56 19/9/56 42/35/56
f 46/40/57 33/18/57 32/17/57
f 32/17/58 35/38/58 46/40/58
f 3/45/59 17/29/59 41/48/59
f 17/29/60 40/28/60 41/48/60
f 11/53/61 9/60/61 49/51/61
f 9/60/62 28/59/62 49/51/62
f 9/60/63 7/67/63 51/58/63
f 7/67/64 25/66/64 51/58/64
f 52/78/65 24/71/65 23/16/65
f 23/24/66 26/23/66 52/61/66
f 7/86/67 5/46/67 53/87/67
f 5/46/68 22/73/68 53/87/68
f 54/68/69 21/77/69 20/8/69
f 20/8/70 23/16/70 54/68/70
f 5/46/71 3/45/71 55/72/71
f 3/45/72 2/49/72 55/72/72
f 56/74/73 1/34/73 19/9/73
f 19/9/74 20/8/74 56/74/74
f 6/88/75 4/89/75 57/90/75
f 4/89/75 18/91/75 57/90/75
f 18/91/75 16/92/75 57/90/75
f 16/92/75 14/43/75 57/90/75
f 14/43/75 12/36/75 57/90/75
f 12/36/75 10/30/75 57/90/75
f 10/30/75 8/22/75 57/90/75
f 8/22/75 6/88/75 57/90/75
f 5/46/76 7/86/76 58/47/76
f 7/67/77 9/60/77 58/93/77
f 9/60/78 11/53/78 58/93/78
f 11/53/79 13/33/79 58/93/79
f 13/33/80 15/84/80 58/93/80
f 15/6/81 17/29/81 58/47/81
f 17/29/82 3/45/82 58/47/82
f 6/88/83 8/22/83 23/24/83
f 8/22/84 10/30/84 26/23/84
f 10/30/85 12/36/85 29/10/85
f 12/36/86 14/43/86 32/37/86
f 14/43/87 16/92/87 35/44/87
f 16/92/88 18/91/88 38/94/88
f 18/56/89 4/7/89 19/9/89
f 50/1/90 30/11/90 31/2/90
f 44/14/91 39/13/91 40/20/91
f 48/19/92 33/18/92 34/25/92
f 42/35/93 1/34/93 2/41/93
f 46/40/94 36/39/94 37/54/94
f 52/61/95 27/64/95 28/62/95
f 54/68/96 24/71/96 25/69/96
f 56/74/97 21/77/97 22/75/97
f 2/41/98 1/34/98 56/74/98
f 22/75/99 21/77/99 54/68/99
f 25/69/100 24/71/100 52/78/100
f 34/25/101 33/18/101 46/40/101
f 40/20/102 39/13/102 42/80/102
f 31/2/103 30/11/103 48/82/103
f 37/54/104 36/39/104 44/14/104
f 28/62/105 27/64/105 50/1/105
